<svg width="72" height="72" viewBox="0 0 72 72" fill="none" xmlns="http://www.w3.org/2000/svg">
<circle cx="36" cy="36" r="35" stroke="#EE1B49" stroke-opacity="0.8" stroke-width="2"/>
<circle cx="36" cy="36" r="28" fill="#EE1B49" fill-opacity="0.8"/>
<mask id="mask0_258_934" style="mask-type:alpha" maskUnits="userSpaceOnUse" x="10" y="10" width="52" height="52">
<circle cx="36" cy="36" r="26" fill="#D9D9D9"/>
</mask>
<g mask="url(#mask0_258_934)">
<path fill-rule="evenodd" clip-rule="evenodd" d="M27.6806 19.1363C29.399 16.8757 32.6228 16.4323 34.8878 18.1449L33.9998 19.3161C32.382 18.0926 30.0792 18.4094 28.8518 20.0242L19.2998 32.304L19.2982 32.3026C18.9051 32.8873 18.6754 33.591 18.6745 34.3484V49.7811H25.8874C25.0283 48.8941 24.5495 47.7067 24.5528 46.4719C24.557 46.2502 24.5776 46.0291 24.6146 45.8105C24.5285 45.3912 24.5343 44.9582 24.6315 44.5413L25.1988 40.9617H23.0485C22.4647 40.9645 21.9059 40.725 21.5053 40.3003C21.0546 39.8413 20.8289 39.2072 20.8879 38.5667C21.0036 37.4174 21.975 36.545 23.1301 36.5531H27.5431C28.4121 36.5534 29.2337 36.9491 29.7757 37.6282C30.3414 38.3284 30.5577 39.2479 30.3636 40.1268L30.0271 41.6973H36.3118V38.7577C36.3118 37.5401 37.2989 36.5531 38.5165 36.5531C39.7341 36.5531 40.7212 37.5401 40.7212 38.7577V49.7811H43.3227C41.734 48.0157 41.829 45.3091 43.5376 43.6595C45.2462 42.0098 47.9544 42.0098 49.663 43.6595C51.3716 45.3091 51.4666 48.0157 49.8779 49.7811H52.4794V34.7159V34.3484H53.9492V34.7159V49.7811C55.1668 49.7811 56.1539 50.7682 56.1539 51.9858V67.2042H54.5616L54.6841 51.9858C54.6841 51.5799 54.3551 51.2509 53.9492 51.2509H17.2047C16.8099 51.2509 16.4878 51.5622 16.4705 51.9527C16.47 51.9637 16.4698 51.9747 16.4698 51.9858L16.4705 65.6425H15V51.9858C15 50.7682 15.9871 49.7811 17.2047 49.7811V34.3484C17.2061 33.2103 17.5766 32.1587 18.2029 31.3069L18.1998 31.304L27.6806 19.1363ZM46.6003 43.902C44.9768 43.902 43.6608 45.2181 43.6608 46.8415C43.6608 48.465 44.9768 49.7811 46.6003 49.7811C48.2238 49.7811 49.5399 48.465 49.5399 46.8415C49.5399 45.2181 48.2238 43.902 46.6003 43.902ZM39.2514 38.7577C39.2514 38.3519 38.9224 38.0228 38.5165 38.0228C38.1106 38.0228 37.7816 38.3519 37.7816 38.7577V43.902C37.7816 44.3078 37.4526 44.6369 37.0467 44.6369C36.6409 44.6369 36.3118 44.3078 36.3118 43.902V43.1671H33.3723V49.7811H37.0467H39.2514V38.7577ZM26.2027 47.5074C26.6343 48.8688 27.9022 49.7905 29.3304 49.7811H31.9025V43.1671H29.711L29.1834 45.6187C28.931 46.7573 27.9245 47.5698 26.7583 47.5764C26.571 47.5752 26.3845 47.552 26.2027 47.5074ZM28.3978 42.2823L28.9269 39.816C29.0265 39.3713 28.918 38.9054 28.6322 38.5505C28.3682 38.2183 27.9675 38.0241 27.5431 38.0228H23.1301C22.7411 38.0152 22.4075 38.299 22.3526 38.6842C22.3285 38.9009 22.4032 39.1168 22.5561 39.2722C22.6822 39.4118 22.8612 39.4918 23.0493 39.4926H26.7583C27.1641 39.4926 27.4931 39.8216 27.4931 40.2275C27.4931 40.6334 27.1641 40.9624 26.7583 40.9624H26.6848L26.0741 44.8206C25.9644 45.1766 26.0154 45.5627 26.2137 45.8781C26.3435 46.0352 26.541 46.1202 26.7443 46.1066C27.2252 46.1094 27.6432 45.777 27.7489 45.3078L28.386 42.3389C28.3885 42.322 28.3921 42.3066 28.3958 42.2907L28.3978 42.2823Z" fill="white"/>
</g>
</svg>
