<svg width="34" height="23" viewBox="0 0 34 23" fill="none" xmlns="http://www.w3.org/2000/svg">
<path fill-rule="evenodd" clip-rule="evenodd" d="M0 11.2779C0 10.5858 0.561028 10.0248 1.25309 10.0248L31.3284 10.0248C32.0205 10.0248 32.5815 10.5858 32.5815 11.2779C32.5815 11.9699 32.0205 12.5309 31.3284 12.5309L1.25309 12.5309C0.561028 12.5309 0 11.9699 0 11.2779Z" fill="#EE1B49"/>
<path fill-rule="evenodd" clip-rule="evenodd" d="M23.8424 0.290487C24.3741 -0.152572 25.1642 -0.0807543 25.6073 0.450895L33.5158 9.94081C34.1613 10.7153 34.1613 11.8404 33.5158 12.6149L25.6073 22.1048C25.1642 22.6365 24.3741 22.7083 23.8424 22.2652C23.3108 21.8222 23.2389 21.032 23.682 20.5004L31.3677 11.2779L23.682 2.05535C23.2389 1.5237 23.3108 0.733545 23.8424 0.290487Z" fill="#EE1B49"/>
</svg>
