<svg width="72" height="72" viewBox="0 0 72 72" fill="none" xmlns="http://www.w3.org/2000/svg">
<circle cx="36" cy="36" r="35" stroke="#B9B9B9" stroke-opacity="0.5" stroke-width="2"/>
<circle cx="36" cy="36" r="28" fill="#B9B9B9" fill-opacity="0.5"/>
<mask id="mask0_258_933" style="mask-type:alpha" maskUnits="userSpaceOnUse" x="10" y="10" width="52" height="52">
<circle cx="36" cy="36" r="26" fill="#EE1B49"/>
</mask>
<g mask="url(#mask0_258_933)">
<path fill-rule="evenodd" clip-rule="evenodd" d="M54.9492 44.577V29.1442C54.9456 26.3047 52.6446 24.0036 49.805 24H23.3489C20.5093 24.0036 18.2083 26.3047 18.2047 29.1442V44.577C16.9871 44.577 16 45.564 16 46.7816V60.4384H17.4705L17.4698 46.7816C17.4698 46.7706 17.47 46.7595 17.4705 46.7486C17.4878 46.358 17.8099 46.0467 18.2047 46.0467H54.9492C55.3551 46.0467 55.6841 46.3758 55.6841 46.7816L55.5616 62H57.1539V46.7816C57.1539 45.564 56.1668 44.577 54.9492 44.577ZM23.3489 25.4698C21.3206 25.4722 19.6769 27.1159 19.6745 29.1442V44.577H26.8874C26.0283 43.6899 25.5495 42.5026 25.5528 41.2677C25.557 41.046 25.5776 40.825 25.6146 40.6063C25.5285 40.187 25.5343 39.754 25.6315 39.3372L26.1988 35.7575H24.0485C23.4647 35.7603 22.9059 35.5208 22.5053 35.0961C22.0546 34.6371 21.8289 34.003 21.8879 33.3625C22.0036 32.2132 22.975 31.3408 24.1301 31.3489H28.5431C29.4121 31.3493 30.2337 31.7449 30.7757 32.4241C31.3414 33.1242 31.5577 34.0437 31.3636 34.9227L31.0271 36.4932H37.3118V33.5536C37.3118 32.336 38.2989 31.3489 39.5165 31.3489C40.7341 31.3489 41.7212 32.336 41.7212 33.5536V44.577H44.3227C42.734 42.8115 42.829 40.105 44.5376 38.4553C46.2462 36.8057 48.9544 36.8057 50.663 38.4553C52.3716 40.105 52.4666 42.8115 50.8779 44.577H53.4794V29.1442C53.477 27.1159 51.8333 25.4722 49.805 25.4698H23.3489ZM47.6003 38.6978C45.9768 38.6978 44.6608 40.0139 44.6608 41.6374C44.6608 43.2609 45.9768 44.577 47.6003 44.577C49.2238 44.577 50.5399 43.2609 50.5399 41.6374C50.5399 40.0139 49.2238 38.6978 47.6003 38.6978ZM34.3723 44.577H38.0467H40.2514V33.5536C40.2514 33.1477 39.9224 32.8187 39.5165 32.8187C39.1106 32.8187 38.7816 33.1477 38.7816 33.5536V38.6978C38.7816 39.1037 38.4526 39.4327 38.0467 39.4327C37.6409 39.4327 37.3118 39.1037 37.3118 38.6978V37.9629H34.3723V44.577ZM27.2027 42.3032C27.6343 43.6647 28.9022 44.5864 30.3304 44.577H32.9025V37.9629H30.711L30.1834 40.4145C29.931 41.5531 28.9245 42.3656 27.7583 42.3723C27.571 42.371 27.3845 42.3479 27.2027 42.3032ZM29.3978 37.0781L29.9269 34.6118C30.0265 34.1671 29.918 33.7013 29.6322 33.3463C29.3682 33.0141 28.9675 32.8199 28.5431 32.8187H24.1301C23.7411 32.8111 23.4075 33.0949 23.3526 33.4801C23.3285 33.6967 23.4032 33.9127 23.5561 34.068C23.6822 34.2076 23.8612 34.2877 24.0493 34.2885H27.7583C28.1641 34.2885 28.4931 34.6175 28.4931 35.0234C28.4931 35.4292 28.1641 35.7583 27.7583 35.7583H27.6848L27.0741 39.6164C26.9644 39.9725 27.0154 40.3586 27.2137 40.6739C27.3435 40.831 27.541 40.9161 27.7443 40.9025C28.2252 40.9053 28.6432 40.5729 28.7489 40.1037L29.386 37.1347C29.3885 37.1178 29.3921 37.1025 29.3958 37.0865L29.3978 37.0781Z" fill="white"/>
<path d="M45.3957 28.4092H49.805C50.2109 28.4092 50.5399 28.7383 50.5399 29.1441V32.8186C50.5399 33.2245 50.8689 33.5535 51.2748 33.5535C51.6807 33.5535 52.0097 33.2245 52.0097 32.8186V29.1441C52.0097 27.9265 51.0226 26.9395 49.805 26.9395H45.3957C44.9898 26.9395 44.6608 27.2685 44.6608 27.6743C44.6608 28.0802 44.9898 28.4092 45.3957 28.4092Z" fill="white"/>
<path d="M41.7212 28.4092H42.4561C42.862 28.4092 43.191 28.0802 43.191 27.6743C43.191 27.2685 42.862 26.9395 42.4561 26.9395H41.7212C41.3154 26.9395 40.9863 27.2685 40.9863 27.6743C40.9863 28.0802 41.3154 28.4092 41.7212 28.4092Z" fill="white"/>
</g>
</svg>
